<?xml version="1.0" standalone="no"?>
<!DOCTYPE svg PUBLIC "-//W3C//DTD SVG 20010904//EN"
 "http://www.w3.org/TR/2001/REC-SVG-20010904/DTD/svg10.dtd">
<svg version="1.0" xmlns="http://www.w3.org/2000/svg"
 width="500.000000pt" height="500.000000pt" viewBox="0 0 500.000000 500.000000"
 preserveAspectRatio="xMidYMid meet">
<metadata>
Created by potrace 1.14, written by Peter Selinger 2001-2017
</metadata>
<g transform="translate(0.000000,500.000000) scale(0.100000,-0.100000)"
fill="#000000" stroke="none">
<path d="M2355 4989 c-494 -25 -966 -202 -1390 -522 -186 -141 -442 -427 -589
-657 -104 -163 -216 -420 -280 -642 -103 -357 -116 -795 -36 -1190 49 -238
190 -590 316 -788 147 -231 403 -516 589 -657 468 -353 968 -524 1535 -524
653 0 1252 239 1720 688 422 404 683 923 756 1503 30 238 16 567 -36 820 -48
237 -191 594 -316 790 -147 231 -403 516 -589 657 -505 381 -1056 552 -1680
522z"/>
</g>
</svg>
