<?xml version="1.0" standalone="no"?>
<!DOCTYPE svg PUBLIC "-//W3C//DTD SVG 20010904//EN"
 "http://www.w3.org/TR/2001/REC-SVG-20010904/DTD/svg10.dtd">
<svg version="1.0" xmlns="http://www.w3.org/2000/svg"
 width="1182.000000pt" height="1182.000000pt" viewBox="0 0 1182.000000 1182.000000"
 preserveAspectRatio="xMidYMid meet">
<metadata>
Created by potrace 1.14, written by Peter Selinger 2001-2017
</metadata>
<g transform="translate(0.000000,1182.000000) scale(0.100000,-0.100000)"
fill="#000000" stroke="none">
<path d="M4898 8525 c-1 -1 -79 -6 -173 -10 -93 -3 -192 -8 -220 -10 -27 -2
-86 -7 -130 -10 -106 -7 -202 -15 -245 -20 -19 -2 -64 -7 -100 -10 -36 -3 -76
-8 -90 -10 -14 -3 -50 -7 -80 -10 -30 -3 -82 -10 -115 -15 -33 -5 -80 -12
-105 -15 -25 -3 -108 -17 -185 -30 -139 -25 -167 -30 -215 -40 -32 -7 -67 -14
-103 -20 -95 -18 -448 -113 -587 -159 -245 -81 -381 -136 -582 -237 -262 -131
-465 -274 -636 -449 -337 -344 -439 -767 -282 -1173 179 -464 665 -814 1305
-942 155 -31 177 -33 320 -41 66 -3 126 -7 133 -9 6 -3 12 -2 12 1 0 3 -26 16
-57 30 -342 148 -590 367 -703 618 -136 304 -109 710 68 1013 116 198 317 390
571 545 64 40 272 148 284 148 3 0 34 13 69 29 164 76 578 208 737 236 19 3
37 8 41 10 11 7 402 82 465 89 110 14 249 32 301 41 12 2 61 6 110 10 49 4
100 8 114 11 107 17 609 37 945 38 240 0 615 -10 679 -19 17 -2 85 -7 151 -10
123 -7 157 -9 280 -20 95 -8 148 -13 305 -30 19 -2 62 -6 95 -10 156 -14 263
-27 390 -44 39 -6 93 -13 120 -16 28 -4 59 -8 70 -10 11 -1 49 -5 85 -9 36 -4
72 -9 80 -11 8 -2 39 -7 69 -10 30 -4 63 -9 75 -11 12 -2 53 -9 91 -14 60 -9
531 -89 620 -105 242 -45 757 -154 925 -196 47 -11 96 -23 110 -25 36 -7 310
-79 480 -125 191 -52 192 -52 140 -28 -188 88 -643 251 -1085 389 -76 24 -445
129 -590 168 -404 110 -1060 256 -1422 318 -16 2 -50 9 -78 14 -27 5 -63 12
-80 14 -16 3 -86 14 -155 25 -193 31 -385 59 -490 71 -52 6 -106 13 -120 15
-48 7 -106 14 -175 20 -84 7 -156 14 -210 20 -22 2 -83 7 -135 10 -52 3 -126
8 -165 11 -74 6 -921 14 -927 9z"/>
<path d="M3631 6920 c-3 -3 -6 -84 -6 -180 l0 -174 617 -1 c339 0 620 -3 623
-7 10 -10 7 -240 -3 -250 -5 -5 -285 -10 -623 -11 l-614 -2 -1 -480 c0 -264 1
-485 3 -490 5 -16 1285 -12 1342 4 87 25 174 97 219 182 34 63 44 152 41 336
-4 158 -6 171 -30 221 l-27 54 26 46 c25 45 27 55 30 225 5 199 -5 275 -45
347 -47 84 -148 159 -238 176 -44 8 -1303 12 -1314 4z m1230 -987 c5 -5 9 -62
10 -127 2 -88 -1 -120 -11 -126 -7 -4 -208 -8 -447 -8 l-433 0 0 133 0 134 38
3 c81 7 836 -2 843 -9z"/>
<path d="M5453 6922 c-13 -2 -23 -5 -23 -6 0 -2 24 -55 53 -117 74 -158 95
-202 177 -379 82 -177 109 -235 175 -375 26 -55 73 -156 105 -225 32 -69 79
-170 105 -225 26 -55 51 -109 55 -120 52 -130 220 -193 370 -138 95 35 117 63
218 280 39 81 89 189 112 238 37 80 85 182 207 445 20 41 56 120 82 175 26 55
63 134 82 175 18 41 54 118 80 170 26 52 45 97 43 99 -3 3 -325 5 -387 2 -10
-1 -21 -11 -26 -23 -5 -13 -35 -77 -66 -143 -32 -66 -70 -147 -85 -180 -43
-93 -92 -198 -157 -335 -33 -69 -88 -187 -123 -262 -61 -131 -79 -156 -102
-142 -10 7 -85 160 -186 379 -28 61 -82 177 -121 258 -39 82 -71 150 -71 152
0 2 -29 65 -65 140 -36 76 -65 141 -65 146 0 5 -6 9 -12 10 -47 3 -357 3 -375
1z"/>
<path d="M7887 6924 c-1 -1 -27 -4 -57 -7 -140 -14 -258 -96 -313 -217 l-30
-65 -1 -657 c-1 -577 1 -657 14 -660 8 -2 98 -4 200 -3 l185 0 0 313 0 312 50
0 c28 1 299 1 603 1 l552 0 0 179 0 178 -595 0 c-327 0 -598 3 -602 5 -14 9
-8 236 6 250 9 9 148 12 594 13 320 1 585 2 590 3 4 0 7 80 7 176 0 133 -3
175 -12 176 -23 1 -1190 4 -1191 3z"/>
<path d="M10 4672 c-6 -2 -10 -30 -10 -63 l0 -59 113 -1 c217 0 381 2 386 6 6
7 4 105 -2 111 -6 6 -471 11 -487 6z"/>
<path d="M641 4613 l0 -63 48 0 48 0 1 -187 c0 -104 0 -203 1 -220 l1 -33 181
0 c202 0 231 7 263 61 25 43 27 190 2 236 -27 52 -59 63 -203 65 l-127 3 -1
99 0 98 -107 2 -107 1 0 -62z m440 -280 c1 -7 1 -29 1 -48 0 -19 0 -38 -1 -43
-1 -4 -49 -7 -107 -7 -98 0 -107 2 -113 20 -5 16 -7 85 -2 91 1 1 51 1 111 1
84 0 110 -4 111 -14z"/>
<path d="M2054 4667 c-52 -9 -98 -36 -116 -70 -11 -21 -20 -443 -10 -474 3 -9
28 -13 82 -13 l77 0 1 210 c1 116 4 215 7 220 4 6 85 10 199 10 l193 0 2 60
c1 33 -2 60 -6 60 -82 5 -393 3 -429 -3z"/>
<path d="M2813 4660 c-24 -14 -40 -42 -76 -131 -25 -63 -73 -181 -106 -263
-34 -81 -61 -150 -61 -152 0 -2 26 -4 58 -4 l59 0 75 187 c42 103 80 189 85
190 9 3 111 -236 105 -247 -1 -3 -32 -6 -70 -6 -37 -1 -74 -2 -82 -3 -9 -1
-24 -23 -35 -53 -11 -29 -21 -56 -23 -60 -2 -5 84 -8 192 -8 l195 0 -100 247
c-55 136 -107 259 -114 274 -21 39 -65 52 -102 29z"/>
<path d="M3210 4393 l0 -283 70 0 70 0 1 38 c0 20 0 67 0 104 0 37 3 69 8 72
4 3 75 6 158 7 167 1 202 10 234 63 14 23 19 50 19 109 0 88 -12 114 -66 148
-32 19 -49 21 -264 22 l-230 2 0 -282z m416 117 c2 -19 -1 -39 -6 -46 -6 -7
-52 -10 -132 -8 -68 1 -126 2 -129 3 -5 1 -5 78 0 89 0 1 60 1 133 0 l132 -3
2 -35z"/>
<path d="M4020 4670 c-96 -7 -123 -18 -150 -63 -18 -29 -20 -51 -20 -215 0
-207 4 -224 67 -259 36 -20 52 -22 264 -23 255 -1 239 -7 229 80 l-5 45 -205
0 -205 0 0 155 0 155 208 3 207 2 1 38 c0 20 2 47 3 60 2 16 -3 22 -18 22
-167 4 -307 4 -376 0z"/>
<path d="M4523 4672 l-32 -3 0 -280 0 -279 60 0 59 0 0 110 0 110 105 0 105 0
18 -42 c11 -24 32 -73 48 -110 l28 -68 69 0 c77 0 76 -3 37 85 -10 22 -30 69
-45 105 -16 36 -39 79 -51 96 l-23 31 60 117 c34 65 58 120 55 124 -9 8 -130
4 -134 -5 -1 -4 -26 -53 -55 -108 l-52 -100 -80 0 -80 0 -5 110 c-6 123 0 115
-87 107z"/>
<path d="M6129 4663 c-58 -24 -87 -112 -83 -253 2 -103 28 -185 66 -213 22
-16 44 -21 113 -21 48 -1 86 -5 86 -11 1 -5 1 -20 2 -32 0 -21 5 -23 48 -23
27 0 50 5 50 10 1 6 2 20 3 32 1 21 6 22 94 24 82 1 96 4 118 25 36 34 57 118
57 229 0 112 -14 169 -51 211 l-27 29 -224 3 c-153 1 -233 -2 -252 -10z m403
-102 c32 -1 37 -5 43 -30 9 -41 9 -169 1 -209 -8 -34 -5 -33 -103 -35 l-58 -1
-1 109 c-1 61 -2 113 -3 117 -1 3 -22 5 -48 4 l-48 -2 -1 -100 c-1 -54 -2
-106 -3 -115 -1 -13 -13 -15 -73 -13 -45 2 -74 8 -79 16 -13 20 -15 181 -4
235 4 19 13 22 58 25 45 3 198 2 319 -1z"/>
<path d="M6915 4669 c-84 -6 -95 -11 -125 -51 -22 -30 -23 -39 -24 -218 -1
-295 -12 -285 319 -285 l240 0 0 60 0 60 -210 1 c-115 1 -213 2 -217 3 -5 0
-8 21 -8 46 l0 45 218 0 218 0 2 59 c1 48 -1 59 -16 63 -9 2 -108 3 -220 3
l-203 -1 3 46 3 45 216 3 216 2 2 60 c1 43 -2 60 -11 61 -69 4 -348 3 -403 -2z"/>
<path d="M7613 4669 c-67 -5 -75 -8 -103 -39 -43 -48 -52 -87 -54 -223 l-1
-121 55 -1 55 0 5 116 c3 78 10 121 19 133 12 14 32 16 140 14 l126 -3 0 -152
c0 -94 -4 -154 -10 -156 -5 -2 -106 -3 -222 -2 l-213 0 -1 -40 c0 -22 -2 -50
-3 -62 l-3 -23 284 0 283 0 0 280 c0 260 -1 280 -17 281 -98 4 -282 3 -340 -2z"/>
<path d="M8142 4665 c-40 -15 -55 -27 -75 -58 -15 -24 -18 -52 -17 -216 2
-206 5 -222 59 -258 33 -22 41 -23 267 -23 l234 0 0 63 0 62 -211 0 c-133 0
-213 3 -217 10 -4 5 -7 27 -8 48 l-1 37 219 0 219 0 -3 62 -3 62 -215 1 -215
0 0 45 0 45 218 3 217 2 0 60 c0 33 -3 60 -7 61 -79 6 -440 1 -461 -6z"/>
<path d="M8690 4392 l0 -283 73 3 72 3 0 105 0 105 165 5 c176 6 195 10 229
59 30 41 32 181 4 220 -41 56 -71 62 -318 64 l-225 2 0 -283z m415 108 l0 -45
-128 0 c-75 0 -132 4 -136 10 -6 8 -8 47 -2 78 0 4 61 6 134 5 l132 -3 0 -45z"/>
<path d="M10329 4661 c0 -9 -1 -109 -1 -223 l0 -208 -119 0 c-88 0 -119 3
-120 13 0 6 -1 105 -1 220 l0 207 -57 0 -57 0 1 -237 c2 -338 -7 -327 266
-328 112 0 180 -4 180 -10 1 -5 2 -28 3 -50 l1 -40 55 -2 55 -2 3 114 3 115
-51 0 -50 0 0 220 0 220 -32 1 c-18 0 -43 2 -55 3 -15 2 -23 -3 -24 -13z"/>
<path d="M10660 4670 l-45 -5 0 -275 1 -275 73 -3 c54 -2 79 1 97 13 14 9 77
94 141 190 64 96 119 175 122 175 3 0 6 -85 5 -190 l0 -190 63 0 63 0 -2 282
-3 281 -37 0 c-21 -1 -56 -2 -78 -2 -54 -1 -73 -21 -203 -218 -60 -90 -110
-163 -112 -163 -2 0 -4 64 -4 143 0 258 1 243 -18 242 -10 0 -38 -2 -63 -5z"/>
<path d="M11476 4673 c-1 -1 -27 -3 -59 -4 -48 -2 -61 -7 -87 -32 -35 -35 -44
-72 -36 -163 3 -38 6 -76 6 -84 1 -8 -3 -33 -8 -55 -6 -22 -13 -62 -16 -90 -3
-27 -8 -69 -12 -92 l-6 -43 60 0 60 0 7 43 c4 23 8 53 10 67 2 14 6 44 10 68
l7 42 144 0 144 0 0 -110 0 -110 60 0 60 0 -2 173 -3 172 -200 0 -200 0 0 45
0 45 203 3 202 2 0 60 c0 55 -2 60 -22 61 -75 2 -320 4 -322 2z"/>
<path d="M1505 4644 c-14 -15 -25 -34 -25 -43 0 -10 -4 -21 -8 -26 -5 -6 -26
-55 -47 -110 -21 -55 -42 -104 -47 -109 -4 -6 -8 -16 -8 -24 0 -8 -6 -28 -14
-45 -30 -65 -66 -157 -66 -167 0 -6 25 -10 58 -10 l57 0 75 186 c41 103 79
187 84 188 5 0 43 -83 84 -186 l76 -188 58 0 c32 0 58 3 58 8 0 22 -204 513
-221 531 -29 31 -83 28 -114 -5z"/>
<path d="M5369 4657 c-9 -7 -41 -73 -71 -147 -121 -292 -158 -384 -158 -393 0
-4 26 -7 57 -5 l57 3 74 180 c40 99 78 184 83 189 5 6 16 -8 27 -35 11 -24 34
-80 53 -124 19 -44 34 -82 34 -85 0 -3 -36 -6 -80 -6 -44 -1 -83 -2 -86 -3 -5
-1 -49 -105 -49 -117 0 -2 86 -4 191 -4 177 0 191 1 187 18 -16 57 -204 501
-221 520 -23 24 -72 29 -98 9z"/>
<path d="M9563 4648 c-12 -13 -59 -117 -106 -233 -47 -115 -95 -232 -106 -258
l-21 -48 62 3 61 3 72 175 c79 195 84 205 95 193 9 -9 100 -230 100 -242 0 -5
-30 -9 -67 -9 -38 0 -75 0 -84 -1 -14 -1 -59 -86 -59 -112 0 -5 86 -9 190 -9
105 0 190 3 190 8 0 4 -21 57 -46 117 -25 61 -70 172 -101 247 -30 76 -64 149
-75 163 -26 33 -76 34 -105 3z"/>
<path d="M17 4472 c-15 -3 -17 -23 -17 -183 l0 -180 233 1 c217 1 235 3 265
22 49 31 64 69 64 159 -1 129 -35 172 -142 178 -82 4 -384 6 -403 3z m408
-182 l0 -55 -145 0 -145 1 -3 43 c-5 72 -9 70 150 68 l143 -2 0 -55z"/>
<path d="M6849 3997 c-1 -1 -2 -26 -3 -54 l-2 -53 117 0 c128 0 126 -1 125 65
l-1 40 -118 2 c-64 1 -118 1 -118 0z"/>
<path d="M3378 3838 c-31 -5 -51 -16 -71 -40 -43 -51 -55 -107 -53 -248 3
-138 18 -192 70 -240 27 -24 33 -25 192 -28 153 -3 166 -2 203 19 63 35 87
107 88 264 1 188 -46 274 -153 276 -174 4 -238 3 -276 -3z m290 -151 c22 -47
16 -247 -9 -271 -5 -6 -63 -10 -130 -11 l-120 -1 -15 29 c-16 31 -22 195 -9
239 14 45 21 47 148 45 l122 -2 13 -28z"/>
<path d="M4164 3838 c-3 -4 -5 -33 -6 -64 l-2 -57 217 0 c155 1 217 -3 218
-11 2 -17 2 -49 1 -66 -2 -13 -31 -15 -217 -15 l-215 0 -1 -35 c0 -53 0 -273
0 -292 1 -17 19 -18 226 -18 251 0 280 6 314 61 16 26 19 46 16 118 -4 115 -5
105 1 201 5 77 3 88 -18 120 -40 59 -57 63 -306 64 -123 1 -226 -2 -228 -6z
m427 -354 c1 -8 2 -25 2 -39 0 -14 -1 -29 -2 -33 -1 -6 -263 -9 -303 -3 -5 1
-4 77 1 89 0 1 69 2 151 1 123 0 150 -3 151 -15z"/>
<path d="M4925 3839 c-22 -3 -50 -12 -63 -20 -27 -17 -59 -79 -68 -134 -12
-70 -7 -220 10 -276 33 -115 61 -129 260 -129 167 0 202 9 233 61 33 54 43
100 46 195 3 105 -7 173 -34 231 -30 62 -65 75 -218 77 -69 0 -144 -2 -166 -5z
m277 -143 c15 -27 20 -178 7 -235 -7 -32 -16 -50 -27 -53 -22 -6 -240 -3 -246
3 -24 24 -30 244 -8 285 10 19 19 20 137 20 113 -1 128 -3 137 -20z"/>
<path d="M6204 3842 c-42 -7 -76 -26 -96 -56 -21 -29 -22 -41 -23 -226 0 -287
-8 -280 332 -280 l228 0 0 63 0 62 -205 1 c-113 1 -211 2 -217 3 -8 1 -13 17
-13 46 l0 45 148 -1 c81 0 179 0 218 0 l71 1 -1 60 c0 33 -5 61 -11 63 -5 2
-104 3 -218 2 l-208 0 3 45 3 45 185 2 c102 1 199 2 216 2 l30 1 0 60 c0 42
-4 60 -13 61 -40 3 -412 4 -429 1z"/>
<path d="M6731 3835 c-4 -5 -7 -131 -6 -280 l1 -270 73 -3 c53 -2 80 1 96 12
13 9 77 94 141 191 65 96 120 173 122 170 3 -3 5 -88 5 -190 l0 -185 62 0 63
0 -1 280 c0 249 -2 280 -16 281 -66 5 -136 -2 -156 -15 -13 -9 -77 -95 -142
-192 l-118 -176 -3 191 c-2 142 -6 191 -15 192 -60 5 -100 2 -106 -6z"/>
<path d="M7373 3834 c-2 -6 -3 -35 -1 -65 l3 -53 235 1 c129 1 241 2 248 2 13
1 18 120 5 122 -5 0 -115 1 -247 2 -168 2 -240 -1 -243 -9z"/>
<path d="M8144 3838 c-39 -5 -55 -14 -77 -40 -43 -51 -55 -107 -53 -248 2
-141 19 -195 74 -242 31 -26 34 -26 195 -27 154 -2 165 -1 197 21 20 13 46 44
59 72 21 42 25 65 27 166 4 165 -20 246 -84 283 -24 14 -56 18 -160 20 -71 1
-151 -1 -178 -5z m283 -149 c15 -30 20 -164 9 -227 -5 -24 -15 -46 -24 -50
-14 -7 -167 -9 -233 -3 -9 0 -22 13 -28 29 -12 28 -17 189 -7 231 10 46 19 49
149 47 121 -1 122 -1 134 -27z"/>
<path d="M2720 3820 c-75 -25 -110 -67 -111 -135 -1 -72 -1 -345 0 -377 1 -28
2 -28 71 -28 l70 0 0 205 c0 240 -7 227 125 230 80 2 133 -9 147 -29 4 -6 8
-100 8 -208 l0 -198 71 0 70 0 -3 230 -3 230 -30 30 c-50 50 -113 67 -245 68
-88 1 -128 -4 -170 -18z"/>
<path d="M5653 3818 c-17 -18 -223 -512 -223 -533 0 -3 27 -5 59 -5 l59 0 75
188 c41 103 79 187 83 187 5 0 43 -84 84 -187 l75 -188 62 0 61 0 -103 257
c-56 142 -112 268 -123 280 -27 31 -81 31 -109 1z"/>
<path d="M8883 3825 c-12 -9 -41 -67 -73 -147 -28 -73 -56 -142 -61 -153 -5
-11 -29 -69 -53 -130 l-44 -110 50 -3 c28 -2 56 -1 62 1 7 3 43 83 80 178 38
96 74 180 81 187 9 10 24 -16 70 -130 31 -79 67 -164 78 -190 l21 -48 59 0
c43 0 58 3 54 13 -137 347 -204 507 -220 525 -24 26 -72 29 -104 7z"/>
<path d="M7379 3640 c-7 -5 -13 -221 -10 -333 l1 -28 238 3 c258 3 263 4 303
65 27 41 27 185 -1 230 -35 59 -56 63 -301 66 -121 1 -225 0 -230 -3z m402
-126 c19 -5 24 -100 5 -106 -6 -2 -72 -4 -146 -3 l-135 0 -3 56 -3 56 133 1
c73 0 140 -2 149 -4z"/>
</g>
</svg>
